<svg xmlns="http://www.w3.org/2000/svg">
    <symbol id="alliance" viewBox="0 0 64 64">
        <path opacity="0.75" d="M50.775 36.4051C50.3 38.3101 49.545 40.1101 48.55 41.7501H45.54C47.035 39.7301 48.09 37.3651 48.565 34.8001L50.44 36.1601L50.775 36.4051ZM15.435 34.8001L13.56 36.1601L13.225 36.4051C13.7 38.3101 14.455 40.1101 15.45 41.7451H18.46C16.96 39.7301 15.91 37.3651 15.435 34.8001ZM35.77 48.1551C34.56 48.4301 33.3 48.5851 32 48.5851C30.705 48.5851 29.445 48.4351 28.23 48.1551L27.97 48.3451L28.77 50.8101C29.82 50.9901 30.895 51.0851 31.995 51.0851C33.095 51.0851 34.17 50.9901 35.22 50.8101L36.025 48.3401L35.77 48.1551ZM40.03 16.9301C41.905 17.9501 43.565 19.3201 44.925 20.9451L45.21 20.0701L45.815 18.2051C44.74 17.1101 43.54 16.1401 42.235 15.3251L40.455 16.6151L40.03 16.9301ZM19.07 20.9501C20.43 19.3251 22.09 17.9551 23.965 16.9301L23.54 16.6201L21.765 15.3301C20.46 16.1451 19.255 17.1151 18.185 18.2101L18.79 20.0701L19.07 20.9501Z" fill="currentColor"/>
        <path d="M34.67 17.735L36.32 22.815L32 19.675L27.68 22.815L29.33 17.735L25.01 14.595H30.35L32 9.52002L33.65 14.595H38.99L34.67 17.735ZM16.41 31L20.73 34.14L19.08 29.06L23.4 25.92H18.06L16.41 20.84L14.76 25.92H9.42L13.74 29.06L12.09 34.135L16.41 31ZM22.365 39.175L20.715 44.255H15.375L19.695 47.395L18.045 52.47L22.365 49.33L26.685 52.47L25.035 47.395L29.355 44.255H24.015L22.365 39.175ZM34.645 44.25L38.965 47.39L37.315 52.47L41.635 49.33L45.955 52.47L44.305 47.39L48.625 44.25H43.285L41.635 39.17L39.985 44.245H34.645V44.25ZM45.94 25.925H40.6L44.92 29.065L43.27 34.14L47.59 31L51.91 34.14L50.26 29.06L54.58 25.92H49.24L47.59 20.845L45.94 25.925Z" fill="currentColor"/>
    </symbol>
</svg>
