<svg xmlns="http://www.w3.org/2000/svg" viewBox="0 0 19 17" fill="currentColor">
<path
            d="M6.96309 13.728L7.82434 16.0518C3.47137 15.418 0.12793 11.6744 0.12793 7.14476C0.12793 4.63616 1.15574 2.36726 2.81121 0.734131C1.66965 2.13569 0.983086 3.92522 0.983086 5.87523C0.985117 9.62288 3.51605 12.7774 6.96309 13.728ZM18.1329 7.14476C18.1329 4.63413 17.1051 2.36522 15.4476 0.734131C16.5912 2.13569 17.2757 3.92522 17.2757 5.87523C17.2757 9.62288 14.7428 12.7774 11.2978 13.728L10.4365 16.0518C14.7895 15.418 18.1329 11.6724 18.1329 7.14476ZM12.48 10.5349L12.3743 10.2119L11.3343 7.00866L14.9012 4.41882H10.4914L9.1284 0.226318L7.76746 4.41882H3.35965L6.92652 7.00866L5.88652 10.2119L5.7809 10.5349L5.56355 11.2032L5.92918 10.9371L6.92652 10.2119L9.1284 8.61132L11.3323 10.2119L12.3296 10.9371L12.6953 11.2032L12.48 10.5349Z"
            fill="#B0B0B0" />
<path
            d="M6.96309 13.728L7.82434 16.0518C3.47137 15.418 0.12793 11.6744 0.12793 7.14476C0.12793 4.63616 1.15574 2.36726 2.81121 0.734131C1.66965 2.13569 0.983086 3.92522 0.983086 5.87523C0.985117 9.62288 3.51605 12.7774 6.96309 13.728ZM18.1329 7.14476C18.1329 4.63413 17.1051 2.36522 15.4476 0.734131C16.5912 2.13569 17.2757 3.92522 17.2757 5.87523C17.2757 9.62288 14.7428 12.7774 11.2978 13.728L10.4365 16.0518C14.7895 15.418 18.1329 11.6724 18.1329 7.14476ZM12.48 10.5349L12.3743 10.2119L11.3343 7.00866L14.9012 4.41882H10.4914L9.1284 0.226318L7.76746 4.41882H3.35965L6.92652 7.00866L5.88652 10.2119L5.7809 10.5349L5.56355 11.2032L5.92918 10.9371L6.92652 10.2119L9.1284 8.61132L11.3323 10.2119L12.3296 10.9371L12.6953 11.2032L12.48 10.5349Z"
            fill="#B0B0B0" />
</svg>