<svg xmlns="http://www.w3.org/2000/svg" viewBox="0 0 64 64" fill="currentColor">
<path d="M40.87 40.535C37.875 39.105 38.635 33.965 38.635 33.965C38.635 33.965 39.585 33.085 39.82 31.56C40.06 30.04 40.325 28.305 40.325 28.305C40.325 28.305 41.125 28.455 41.515 27.45C41.9 26.445 41.99 26.08 42.225 24.955C42.465 23.83 42.87 21.2 41.87 21.275C41.77 21.285 41.32 21.595 41.34 20.985C41.34 20.985 42.775 8.86499 32 8.86499C21.22 8.86499 22.66 20.985 22.66 20.985C22.68 21.595 22.23 21.285 22.13 21.275C21.125 21.205 21.535 23.83 21.775 24.955C22.01 26.08 22.1 26.445 22.485 27.45C22.875 28.455 23.675 28.305 23.675 28.305C23.675 28.305 23.94 30.04 24.18 31.56C24.415 33.08 25.365 33.965 25.365 33.965C25.365 33.965 26.13 39.105 23.13 40.535C19.465 42.285 10.39 45.97 10.39 45.97V52.25H32H53.61V45.97C53.61 45.97 44.54 42.285 40.87 40.535Z" fill="currentColor"/>
<path d="M40.87 40.535C37.875 39.105 38.635 33.965 38.635 33.965C38.635 33.965 39.585 33.085 39.82 31.56C40.06 30.04 40.325 28.305 40.325 28.305C40.325 28.305 41.125 28.455 41.515 27.45C41.9 26.445 41.99 26.08 42.225 24.955C42.465 23.83 42.87 21.2 41.87 21.275C41.77 21.285 41.32 21.595 41.34 20.985C41.34 20.985 42.775 8.86499 32 8.86499C21.22 8.86499 22.66 20.985 22.66 20.985C22.68 21.595 22.23 21.285 22.13 21.275C21.125 21.205 21.535 23.83 21.775 24.955C22.01 26.08 22.1 26.445 22.485 27.45C22.875 28.455 23.675 28.305 23.675 28.305C23.675 28.305 23.94 30.04 24.18 31.56C24.415 33.08 25.365 33.965 25.365 33.965C25.365 33.965 26.13 39.105 23.13 40.535C19.465 42.285 10.39 45.97 10.39 45.97V52.25H32H53.61V45.97C53.61 45.97 44.54 42.285 40.87 40.535Z" fill="currentColor"/>
</svg>