<svg width="196" height="250" viewBox="0 0 196 250" fill="none" xmlns="http://www.w3.org/2000/svg">
<g clip-path="url(#clip0_1808_10928)">
<path d="M152.184 79.6836L153.674 77.0941V30.7827L152.184 33.3722V79.6836Z" fill="#FFFBFD"/>
<path d="M154.633 75.4205V78.7511L159.889 69.6087V66.2781V19.9667L154.633 29.1091V75.4205Z" fill="#FFFBFD"/>
<path d="M19.9424 37.9434L24.2824 45.5038V19.184H19.9424V37.9434Z" fill="#FFFBFD"/>
<path d="M108.3 151.774V109.742L105.851 113.997V156.028L108.3 151.774Z" fill="#FFFBFD"/>
<path d="M64.7585 109.242L67.5991 114.197V74.7544L64.7585 69.8002V109.242Z" fill="#FFFBFD"/>
<path d="M109.533 153.905L109.841 153.364V107.052L109.533 107.594V153.905Z" fill="#FFFBFD"/>
<path d="M111.916 154.255L112.831 152.656V148.168V101.857L111.916 103.447V149.759V154.255Z" fill="#FFFBFD"/>
<path d="M144.112 93.7386L144.47 93.1057V46.7943L144.112 47.4271V93.7386Z" fill="#FFFBFD"/>
<path d="M138.664 56.9026L134.632 63.9217H133.083V48.7261H132.35H131.283V69.7502L130.009 71.965L129.334 73.1307L129.109 73.5304L128.376 74.8043L126.127 78.7177V125.029L128.376 121.116L129.109 119.842L129.334 119.442L130.009 118.276L131.25 116.112V132.631H132.35H132.375V114.155L133.308 112.531L134.182 111.007V139.592H134.457V109.784L138.664 102.456V56.9026Z" fill="#FFFBFD"/>
<path d="M147.402 88.01L150.059 83.3805V38.5013L147.402 43.1307V88.01Z" fill="#FFFBFD"/>
<path d="M117.855 139.417V145.695L125.169 132.973V126.703V84.3547L117.855 97.0774V139.417Z" fill="#FFFBFD"/>
<path d="M150.634 83.9634L151.225 82.9309V36.3864L150.634 37.4188V83.9634Z" fill="#FFFBFD"/>
<path d="M114.323 145.57L114.614 145.087V104.022L114.323 104.505V145.57Z" fill="#FFFBFD"/>
<path d="M78.9199 142.606L79.2113 143.089V98.4513L78.9199 97.9684V142.606Z" fill="#FFFBFD"/>
<path d="M62.6428 112.415L63.209 113.389V67.0858L62.6428 66.1116V112.415Z" fill="#FFFBFD"/>
<path d="M145.369 45.4122V91.5404L146.827 89.0092V42.8809L145.369 45.4122Z" fill="#FFFBFD"/>
<path d="M176.366 37.5937V40.1082L182.705 29.0758V26.5695V19.184H176.366V37.5937Z" fill="#FFFBFD"/>
<path d="M173.759 42.1399L175.407 39.2673V19.8002H173.759V42.1399Z" fill="#FFFBFD"/>
<path d="M184.213 19.184V23.955L186.745 19.5421V19.184H184.213Z" fill="#FFFBFD"/>
<path d="M41.1011 74.9792L41.2676 75.2706V28.9675L41.1011 28.6761V74.9792Z" fill="#FFFBFD"/>
<path d="M141.254 98.8093L141.429 98.5179V52.2148L141.254 52.5062V98.8093Z" fill="#FFFBFD"/>
<path d="M69.2986 81.0574V124.013L69.7984 124.888V152.473H70.0066V125.254L72.2558 129.184V86.2281L69.2986 81.0574Z" fill="#FFFBFD"/>
<path d="M74.6216 133.297L76.2369 136.112V89.8085L74.6216 86.9942V133.297Z" fill="#FFFBFD"/>
<path d="M43.3584 75.6287L48.4315 84.4713V43.1058L43.3584 34.2631V75.6287Z" fill="#FFFBFD"/>
<path d="M49.1646 79.9001H49.6558V93.8385L51.3461 96.786V44.7044L49.1646 40.8826V79.9001Z" fill="#FFFBFD"/>
<path d="M170.835 19.184H169.119V20.2581H161.105V67.2856L169.119 53.3389V51.4655L171.035 48.1849V46.8776L172.751 43.8968V19.184H171.035H170.835Z" fill="#FFFBFD"/>
<path d="M90.5318 112.931L89.6492 111.399V159.5L90.5318 161.041L91.2895 162.365V114.263L90.5318 112.931Z" fill="#FFFBFD"/>
<path d="M37.0442 66.8693L40.0597 72.1399V26.7277L37.0442 21.4571V66.8693Z" fill="#FFFBFD"/>
<path d="M88.6079 161.274L88.916 161.807V112.973L88.6079 112.44V161.274Z" fill="#FFFBFD"/>
<path d="M74.6216 70.9992L76.2369 73.8135V41.1157L74.6216 43.9301V70.9992Z" fill="#FFFBFD"/>
<path d="M111.916 73.9217L112.831 75.5121V28.6761L111.916 27.0774V73.9217Z" fill="#FFFBFD"/>
<path d="M105.851 63.4055L105.276 62.4147V114.996L105.851 113.997V68.9009L108.3 73.1474V20.7744L105.851 16.5029V63.4055Z" fill="#FFFBFD"/>
<path d="M109.533 22.9309V69.7918L109.841 70.333V23.4721L109.533 22.9309Z" fill="#FFFBFD"/>
<path d="M88.1414 67.3939C88.1996 67.2939 88.2496 67.2023 88.3995 67.0108V20.075L88.1414 20.458V67.3855V67.3939Z" fill="#FFFBFD"/>
<path d="M92.248 117.735V164.038L95.2719 169.309L97.7876 173.705V127.402L95.2719 123.006L92.248 117.735Z" fill="#FFFBFD"/>
<path d="M91.29 170.724H92.0394V163.672L91.29 162.365V170.724Z" fill="#FFFBFD"/>
<path d="M109.841 107.052L111.915 103.447V73.9217L109.841 70.3331V107.052Z" fill="#FFFBFD"/>
<path d="M97.8794 174.022L97.8711 174.047V185.337H98.8286V195.912H99.7196V170.816L98.8286 172.381L97.8794 174.022Z" fill="#FFFBFD"/>
<path d="M72.2559 129.184V156.028H72.2975H72.8637V130.241L72.2975 129.242L72.2559 129.184Z" fill="#FFFBFD"/>
<path d="M98.9207 126.07L99.8116 124.505V52.9309L98.9207 51.3739V126.07Z" fill="#FFFBFD"/>
<path d="M90.5313 65.1124C90.7978 64.6544 91.0476 64.2215 91.289 63.7885V14.9126L90.5313 16.2365L89.6487 17.7685L89.0742 18.7677V67.627C89.2657 67.2939 89.4572 66.9609 89.6487 66.6361C89.9568 66.1116 90.2399 65.6037 90.5313 65.1041V65.1124Z" fill="#FFFBFD"/>
<path d="M146.827 130.241H147.402V88.01L146.827 89.0092V130.241Z" fill="#FFFBFD"/>
<path d="M41.8508 76.1449L43.0748 78.2764V31.9734L41.8508 29.8418V76.1449Z" fill="#FFFBFD"/>
<path d="M86.0505 153.214L87.8157 156.311V111.932L86.0505 108.834V153.214Z" fill="#FFFBFD"/>
<path d="M85.8755 69.0425L87.8155 65.5953V20.9575L85.8755 24.338V69.0425Z" fill="#FFFBFD"/>
<path d="M76.929 80.0167V84.9126L77.4952 85.9117V81.0075V38.9176L76.929 39.9167V80.0167Z" fill="#FFFBFD"/>
<path d="M123.977 28.8593H123.445V37.4188H123.977V28.8593Z" fill="#FFFBFD"/>
<path d="M105.543 58.8759V48.5013H105.276V15.5121L100.82 7.73523V54.6794L105.276 62.4147V58.8759H105.543Z" fill="#FFFBFD"/>
<path d="M137.314 110.133H136.839V126.428H137.505V117.744H137.314V110.133Z" fill="#FFFBFD"/>
<path d="M149.259 88.0183H148.193V103.339H149.259V88.0183Z" fill="#FFFBFD"/>
<path d="M139.063 131.565V119.126H138.022V135.562H140.205V150.641H140.471V131.565H139.063Z" fill="#FFFBFD"/>
<path d="M140.079 54.438H139.621H139.063V56.2032V77.7685H139.621V100.575L140.537 98.9842V77.7685H140.687V54.438H140.537H140.079Z" fill="#FFFBFD"/>
<path d="M103.269 115.404H101.861V120.949L100.82 122.748V169.059L105.276 161.307V114.996L103.269 118.493V115.404Z" fill="#FFFBFD"/>
<path d="M140.537 52.3397H140.579V50.2498H140.537H139.621H139.172V52.3397H139.621H140.537Z" fill="#FFFBFD"/>
<path d="M66.8823 122.173H65.4751V125.271H66.8823V122.173Z" fill="#FFFBFD"/>
<path d="M98.0459 43.3139H99.3371V26.0616H97.7877V3.597L97.1713 4.66278V0H96.7214V5.43714L95.2637 7.98501V54.9542C95.3553 54.796 95.4386 54.6545 95.4969 54.5545L95.6385 54.3131V90.5412H97.1796V51.6403L97.796 50.5745V48.6844H98.0543V43.3139H98.0459Z" fill="#FFFBFD"/>
<path d="M82.5352 77.0358C83.1599 75.945 83.7847 74.8709 84.3928 73.8218C84.7177 73.2639 85.0342 72.7061 85.3507 72.1649V25.254L84.3928 26.9192L82.5352 30.1499V13.3639H81.7854V34.7544L79.9028 38.0266V81.5903C80.7858 80.0583 81.6522 78.5595 82.5018 77.0858C82.5102 77.0691 82.5185 77.0525 82.5268 77.0358H82.5352Z" fill="#FFFBFD"/>
<path d="M85.3507 97.5853H84.3927H82.5351L82.5101 100.758L79.9111 96.2198V142.523L84.3927 150.341V128.643H85.3507V152.007L85.7172 152.648V106.345L85.3507 105.704V97.5853Z" fill="#FFFBFD"/>
<path d="M87.5659 103.356H86.2087V105.171H87.5659V103.356Z" fill="#FFFBFD"/>
<path d="M57.2859 47.7769H55.9287V49.9584H57.2859V47.7769Z" fill="#FFFBFD"/>
<path d="M13.2534 19.6919V19.184H12.4037H11.679H11.1708H10.746H9.25488V19.3089L10.746 21.8984L11.679 23.5304V23.5137L12.3953 24.7627L12.4037 24.7794V24.8043L17.4767 33.647V19.6919H16.2439H13.2534Z" fill="#FFFBFD"/>
<path d="M35.8197 65.6286V19.3256L35.7364 19.184H29.7471V57.9517L35.8197 68.5429V99.7752H37.0443V70.3997L35.8197 68.2681V65.6286Z" fill="#FFFBFD"/>
<path d="M25.7153 20.0666V49.1257L28.9558 54.7794L29.1973 55.204V20.0666H28.9558H25.7153Z" fill="#FFFBFD"/>
<path d="M58.1611 50.0416H57.2781V53.7552H55.9286V50.6245H54.3209H53.6295V4.07159H53.0797V31.8484L53.0547 39.4005V55.5454L52.0801 53.8551V93.9883L60.5935 108.826V129.176H61.5848V114.48H60.8767V109.334L61.743 110.849V64.5462L58.1611 58.2931V50.0416Z" fill="#FFFBFD"/>
<path d="M128.376 55.7868L126.127 51.8568V67.7352L128.376 63.8135V55.7868Z" fill="#FFFBFD"/>
<path d="M123.986 51.3489H123.445V44.1382L123.986 45.0708V39.0674H123.445V44.1382L117.855 34.388V37.4438L117.139 36.1865V30.0583H116.63V35.3039L114.506 31.5987L114.323 31.2739V78.1016L114.506 78.418L116.63 82.1066V95.2373V113.497H117.139V94.363V82.9809L117.247 82.7893L117.855 81.7319V78.4596V77.2689L120.895 71.9734V63.2556H121.512V70.9076L125.169 64.5462V50.1915V47.1357L123.986 45.0708V51.3489Z" fill="#FFFBFD"/>
<path d="M120.896 80.3913H121.512V70.9076L120.896 71.9734V80.3913Z" fill="#FFFBFD"/>
<path d="M78.8948 211.016H90.9652V208.959H78.8948V211.016ZM78.8948 207.902H81.0773V207.202H90.9652V205.146H78.8948V207.902ZM81.0773 212.04H78.8948V214.813H90.9652V212.756H81.0773V212.04ZM108.475 212.04H106.284V214.813H118.355V212.756H108.475V212.04ZM98.6289 212.54C98.3707 212.09 94.3555 205.154 94.3555 205.154H91.9898L98.6289 216.711L105.251 205.154H102.877C102.877 205.154 98.8788 212.098 98.6206 212.54M106.284 205.146V207.902H108.475V207.202H118.355V205.146H106.284ZM106.284 211.016H118.355V208.959H106.284V211.016Z" fill="#FFFBFD"/>
<path d="M108.433 250C106.742 250 105.576 249.684 104.968 249.051C104.352 248.41 104.043 247.269 104.043 245.654V223.639H109.108V244.23C109.108 244.638 109.183 244.954 109.35 245.204C109.508 245.454 109.841 245.762 110.549 245.762H113.032C113.74 245.762 114.081 245.454 114.24 245.204C114.398 244.954 114.473 244.629 114.473 244.23V223.639H119.538V245.654C119.538 247.269 119.229 248.41 118.613 249.042C118.005 249.675 116.847 249.992 115.148 249.992H108.433V250Z" fill="#FFFBFD"/>
<path d="M36.811 223.639L43.7333 250H38.6436L34.0121 231.649L29.3888 250H24.2908L31.2131 223.639H36.811Z" fill="#FFFBFD"/>
<path d="M139.647 223.639L146.561 250H141.471L136.848 231.649L132.216 250H127.126L134.04 223.639H139.647Z" fill="#FFFBFD"/>
<path d="M82.1019 250C80.4109 250 79.2447 249.684 78.6366 249.051C78.0201 248.41 77.7119 247.269 77.7119 245.654V226.878C77.7119 225.845 77.9702 225.062 78.4949 224.471C79.0031 223.905 79.7778 223.639 80.8607 223.639H93.206V227.868H84.1678C83.3348 227.868 82.7766 228.451 82.7766 229.309V244.321C82.7766 245.179 83.3348 245.762 84.1678 245.762H88.1413V235.062H93.206V249.992H82.1019V250Z" fill="#FFFBFD"/>
<path d="M180.506 250V223.639H192.843C193.934 223.639 194.709 223.913 195.209 224.471C195.733 225.062 195.992 225.845 195.992 226.878V245.654C195.992 247.269 195.683 248.41 195.067 249.051C194.459 249.684 193.293 250 191.602 250H180.498H180.506ZM185.571 245.762H189.494C190.044 245.762 190.435 245.595 190.669 245.262C190.844 245.012 190.935 244.688 190.935 244.271V229.309C190.935 228.451 190.377 227.868 189.544 227.868H185.571V245.762Z" fill="#FFFBFD"/>
<path d="M6.91402 250L0 223.639H5.08972L9.72128 241.99L14.3445 223.639H19.4342L12.5202 250H6.91402Z" fill="#FFFBFD"/>
<path d="M169.677 227.152C169.677 226.037 169.393 225.179 168.81 224.546C168.252 223.938 167.294 223.63 165.978 223.63H154.183V249.992H159.247V227.868H163.154C164.029 227.868 164.595 228.451 164.595 229.351L164.62 236.811H160.663L165.228 249.992H170.093L166.686 240.167H169.677V227.144V227.152Z" fill="#FFFBFD"/>
<path d="M62.2346 223.639V238.585L56.0037 223.639H55.9954H51.3555V250H55.9954V234.954L62.2346 250H66.8829V223.639H62.2346Z" fill="#FFFBFD"/>
</g>
<defs>
<clipPath id="clip0_1808_10928">
<rect width="196" height="250" fill="white"/>
</clipPath>
</defs>
</svg>
