<svg width="63" height="39" viewBox="0 0 63 39" fill="none" xmlns="http://www.w3.org/2000/svg">
<g id="Frame">
<g id="Group">
<path id="Vector" d="M11.4022 12.537C11.4022 15.6156 8.85093 18.1103 5.70236 18.1103C2.55472 18.1112 -0.000244141 15.6165 -0.000244141 12.537C-0.000244141 9.45849 2.55472 6.96289 5.70236 6.96289C8.85185 6.96289 11.4022 9.4594 11.4022 12.537Z" fill="white"/>
<path id="Vector_2" d="M36.0814 12.537C36.0814 15.6156 33.5302 18.1103 30.3798 18.1103C27.2303 18.1103 24.6753 15.6156 24.6753 12.537C24.6753 9.45849 27.2303 6.96289 30.3798 6.96289C33.5302 6.96289 36.0814 9.4594 36.0814 12.537Z" fill="white"/>
<path id="Vector_3" d="M11.4022 26.4614C11.4022 29.5409 8.85093 32.0347 5.70236 32.0347C2.55472 32.0347 -0.000244141 29.54 -0.000244141 26.4614C-0.000244141 23.3856 2.55472 20.8882 5.70236 20.8882C8.85185 20.8873 11.4022 23.3856 11.4022 26.4614Z" fill="white"/>
<path id="Vector_4" d="M23.7436 19.5004C23.7436 22.579 21.1877 25.0737 18.041 25.0737C14.8933 25.0737 12.3384 22.579 12.3384 19.5004C12.3384 16.421 14.8924 13.9263 18.041 13.9263C21.1877 13.9263 23.7436 16.421 23.7436 19.5004Z" fill="white"/>
<path id="Vector_5" d="M23.7436 5.57415C23.7436 8.65269 21.1877 11.1483 18.041 11.1483C14.8933 11.1483 12.3384 8.65359 12.3384 5.57415C12.3384 2.49741 14.8924 0 18.0401 0C21.1877 0 23.7436 2.49741 23.7436 5.57415Z" fill="white"/>
<path id="Vector_6" d="M23.7436 33.4258C23.7436 36.5025 21.1877 38.9999 18.041 38.9999C14.8933 38.9999 12.3384 36.5025 12.3384 33.4258C12.3384 30.3472 14.8924 27.8525 18.041 27.8525C21.1877 27.8525 23.7436 30.3472 23.7436 33.4258Z" fill="white"/>
<path id="Vector_7" d="M30.3621 31.9974C27.2126 31.9974 24.6604 29.5009 24.6604 26.4224C24.6604 23.3429 27.2126 20.8491 30.3621 20.8491H54.1865C57.3397 20.8491 59.891 23.3429 59.891 26.4224C59.891 29.5009 57.3388 31.9974 54.1865 31.9974H30.3621Z" fill="white"/>
<path id="Vector_8" d="M32.0244 25.2096C31.7901 24.8123 31.4169 24.5796 30.8298 24.5796C29.8491 24.5796 29.287 25.3436 29.287 26.4226C29.287 27.469 29.8583 28.2655 30.839 28.2655C31.4252 28.2655 31.7725 28.0429 32.1179 27.5269L33.219 28.1071C32.7707 28.9291 31.9882 29.4197 30.7992 29.4197C29.0906 29.4197 27.9414 28.2565 27.9414 26.4226C27.9414 24.6538 29.1379 23.4282 30.8464 23.4282C32.079 23.4282 32.83 23.9587 33.2384 24.7136L32.0244 25.2096Z" fill="black"/>
<path id="Vector_9" d="M38.779 25.2096C38.5447 24.8123 38.1715 24.5796 37.5826 24.5796C36.6028 24.5796 36.0444 25.3436 36.0444 26.4226C36.0444 27.469 36.613 28.2655 37.5946 28.2655C38.1827 28.2655 38.5281 28.0429 38.8735 27.5269L39.9746 28.1071C39.5273 28.9291 38.7438 29.4197 37.5548 29.4197C35.8462 29.4197 34.697 28.2565 34.697 26.4226C34.697 24.6538 35.8916 23.4282 37.6011 23.4282C38.8355 23.4282 39.5828 23.9587 39.9949 24.7136L38.779 25.2096Z" fill="black"/>
<path id="Vector_10" d="M45.0169 23.5068L42.1887 23.5168V29.329H43.4982V27.9441L45.0169 27.935C46.267 27.935 47.282 26.9447 47.282 25.7236C47.2829 24.4998 46.267 23.5068 45.0169 23.5068ZM44.6965 26.8135H43.4982V24.6401H44.6965C45.3141 24.6401 45.8124 25.1163 45.8124 25.7236C45.8124 26.3265 45.3141 26.8135 44.6965 26.8135Z" fill="black"/>
</g>
</g>
</svg>
