<svg xmlns="http://www.w3.org/2000/svg">
    <symbol id="location" viewBox="0 0 15 20">
        <path d="M7.4375 0.6875C5.58098 0.6875 3.80051 1.425 2.48775 2.73775C1.175 4.05051 0.4375 5.83098 0.4375 7.6875C0.4375 11.3848 6.67386 19.2057 6.94114 19.5429C7.00076 19.6173 7.07632 19.6773 7.16223 19.7185C7.24814 19.7597 7.34221 19.7811 7.4375 19.7811C7.53279 19.7811 7.62686 19.7597 7.71277 19.7185C7.79868 19.6773 7.87424 19.6173 7.93386 19.5429C8.20114 19.2057 14.4375 11.3848 14.4375 7.6875C14.4375 5.83098 13.7 4.05051 12.3872 2.73775C11.0745 1.425 9.29401 0.6875 7.4375 0.6875ZM7.4375 9.59659C6.93406 9.59659 6.44192 9.4473 6.02332 9.1676C5.60472 8.8879 5.27847 8.49036 5.08581 8.02524C4.89315 7.56012 4.84274 7.04831 4.94096 6.55454C5.03917 6.06077 5.2816 5.60722 5.63759 5.25123C5.99358 4.89524 6.44714 4.65281 6.94091 4.55459C7.43468 4.45637 7.94648 4.50678 8.4116 4.69944C8.87672 4.8921 9.27427 5.21836 9.55397 5.63696C9.83367 6.05555 9.98295 6.54769 9.98295 7.05114C9.98295 7.72623 9.71477 8.37368 9.23741 8.85104C8.76004 9.32841 8.1126 9.59659 7.4375 9.59659Z" fill="currentColor"/>
    </symbol>
</svg>
