<svg xmlns="http://www.w3.org/2000/svg">
    <symbol id="unread_mail_filled" viewBox="0 0 16 11">
        <path d="M4.43926 4.41205L4.43149 4.41983L0.0116617 0H15.9864L11.5685 4.41983L8.89407 7.09427H7.10787L5.30612 5.29252L5.3139 5.28474L4.43926 4.41205ZM16 8.85131V1.73372L12.4431 5.29252L16 8.85131ZM9.40525 8.33042H6.59475L4.43149 6.16521L0.0272108 10.5714H15.9747L11.5685 6.16521L9.40525 8.33042ZM0 1.73372V8.84937L3.55685 5.29057L0 1.73372Z" fill="currentColor"/>
    </symbol>
    <symbol id="unread_mail" viewBox="0 0 16 11">
        <path d="M15.4125 0.43862C15.4001 0.426102 15.3871 0.414588 15.3732 0.404581C15.071 0.152188 14.6824 0 14.2588 0H1.74118C1.31755 0 0.928941 0.15222 0.626729 0.404612C0.612894 0.414588 0.599906 0.426102 0.587514 0.438588C0.227514 0.757804 0 1.22331 0 1.74118V8.61176C0 9.13089 0.228643 9.5974 0.590212 9.91667C0.601224 9.92762 0.612737 9.93779 0.624941 9.94676C0.927404 10.2001 1.31671 10.3529 1.74118 10.3529H14.2588C14.6832 10.3529 15.0725 10.2001 15.375 9.94686C15.3873 9.93779 15.3989 9.92756 15.41 9.91652C15.7714 9.59724 16 9.13079 16 8.61176V1.74118C16 1.22334 15.7725 0.757835 15.4125 0.43862ZM10.5273 5.33559L15.17 1.10196C15.2974 1.28304 15.3726 1.50344 15.3726 1.74115V8.61173C15.3726 8.85387 15.2947 9.07799 15.1629 9.26093L10.5273 5.33559ZM14.2588 0.627451C14.4047 0.627451 14.544 0.655937 14.6718 0.707169L8 6.79112L1.32816 0.707169C1.45597 0.655937 1.59526 0.627451 1.74118 0.627451H14.2588ZM0.837082 9.26096C0.705349 9.07802 0.627451 8.8539 0.627451 8.61176V1.74118C0.627451 1.50344 0.702557 1.28307 0.829961 1.10199L5.47263 5.33559L0.837082 9.26096ZM1.74118 9.72549C1.60185 9.72549 1.46855 9.69955 1.34554 9.65261L5.94017 5.76191L7.78861 7.4475C7.8485 7.50212 7.92424 7.52941 8 7.52941C8.07577 7.52941 8.1515 7.50212 8.21139 7.4475L10.0598 5.76191L14.6545 9.65261C14.5315 9.69955 14.3981 9.72549 14.2588 9.72549H1.74118Z" fill="currentColor"/>
    </symbol>
    <symbol id="read_mail" viewBox="0 0 16 16">
        <path d="M16 6.58704C16 6.49312 15.9547 6.40243 15.8834 6.34413L8.19757 0.0704454C8.08097 -0.0234818 7.91579 -0.0234818 7.80243 0.0704454L0.116599 6.34413C0.0453441 6.39919 0 6.49312 0 6.58704V15.6883C0.00323887 15.8599 0.145749 15.9992 0.31417 15.9992H15.6858C15.8575 15.9992 16 15.8567 16 15.685V6.58704ZM15.3717 15.0243L10.196 10.7976L15.3717 7.18623V15.0243ZM8 0.718219L15.1644 6.56761L9.69069 10.3862L8.19757 9.16842C8.08097 9.07449 7.91579 9.07449 7.80243 9.16842L6.30931 10.3862L0.835628 6.56761L8 0.718219ZM0.62834 7.18947L5.80405 10.8008L0.62834 15.0243V7.18947ZM1.19514 15.3709L8 9.81619L14.8049 15.3709H1.19514Z" fill="currentColor"/>
    </symbol>
</svg>
