<svg xmlns="http://www.w3.org/2000/svg">
    <symbol id="play" viewBox="0 0 18 18">
        <path d="M11.9691 8.6481L8.23141 5.93112C8.09424 5.83169 7.91215 5.81671 7.76181 5.89398C7.61026 5.97065 7.51562 6.12638 7.51562 6.2947V11.7269C7.51562 11.897 7.61026 12.0521 7.76181 12.1288C7.8259 12.1611 7.89598 12.1773 7.96666 12.1773C8.0589 12.1773 8.15234 12.1479 8.23141 12.0898L11.9691 9.37526C12.0871 9.28841 12.1559 9.15424 12.1559 9.01168C12.1565 8.86673 12.0859 8.73315 11.9691 8.6481Z" fill="currentColor"/>
    </symbol>

    <symbol id="stop" viewBox="0 0 18 18">
        <path d="M11.3769 6.4021H6.62327C6.50946 6.4021 6.41602 6.49135 6.41602 6.60696V11.4122C6.41602 11.5254 6.50886 11.6182 6.62327 11.6182H11.3769C11.4908 11.6182 11.583 11.526 11.583 11.4122V6.60696C11.5824 6.49195 11.4908 6.4021 11.3769 6.4021Z" fill="currentColor"/>
    </symbol>

    <symbol id="play_borderless" viewBox="0 0 6 8">
        <path d="M4.96905 3.6481L1.23141 0.931117C1.09424 0.831686 0.912151 0.816712 0.761807 0.89398C0.610264 0.97065 0.515625 1.12638 0.515625 1.2947V6.72686C0.515625 6.89697 0.610264 7.05211 0.761807 7.12878C0.825898 7.16113 0.895979 7.1773 0.966658 7.1773C1.0589 7.1773 1.15234 7.14795 1.23141 7.08985L4.96905 4.37526C5.08705 4.28841 5.15594 4.15424 5.15594 4.01168C5.15654 3.86673 5.08586 3.73315 4.96905 3.6481Z" fill="currentColor"/>
    </symbol>

    <symbol id="stop_borderless" viewBox="0 0 6 6">
        <path d="M5.37695 0.4021H0.62327C0.50946 0.4021 0.416016 0.491351 0.416016 0.606958V5.41215C0.416016 5.52536 0.508861 5.61821 0.62327 5.61821H5.37695C5.49076 5.61821 5.583 5.52596 5.583 5.41215V0.606958C5.58241 0.49195 5.49076 0.4021 5.37695 0.4021Z" fill="currentColor"/>
    </symbol>
</svg>
