<svg width="29" height="28" viewBox="0 0 29 28" fill="none" xmlns="http://www.w3.org/2000/svg">
<path d="M23.3513 12.8439L23.5968 12.4264V4.96161L23.3513 5.37915V12.8439Z" fill="white"/>
<path d="M23.7523 12.1577V12.6929L24.6104 11.2204V10.6829V3.2182L23.7523 4.69294V12.1577Z" fill="white"/>
<path d="M1.74542 6.11436L2.45488 7.33591V3.0916H1.74542V6.11436Z" fill="white"/>
<path d="M16.1825 24.4642V17.688L15.7816 18.3742V25.1505L16.1825 24.4642Z" fill="white"/>
<path d="M9.06982 17.6081L9.53379 18.4076V12.0489L9.06982 11.2516V17.6081Z" fill="white"/>
<path d="M16.3851 24.8084L16.4347 24.7196V17.2549L16.3851 17.3415V24.8084Z" fill="white"/>
<path d="M16.7725 24.8639L16.9234 24.6063V23.8823V16.4175L16.7725 16.6751V24.1399V24.8639Z" fill="white"/>
<path d="M22.0338 15.1094L22.0924 15.0072V7.54247L22.0338 7.64463V15.1094Z" fill="white"/>
<path d="M21.1442 9.17268L20.4842 10.3032H20.232V7.85564H20.1126H19.9369V11.2426L19.7297 11.6002L19.6194 11.789L19.5811 11.8534L19.4617 12.0577L19.0946 12.6885V20.1533L19.4617 19.5225L19.5811 19.3182L19.6194 19.2538L19.7297 19.065L19.9324 18.7163V21.3792H20.1126H20.1149V18.4009L20.268 18.1388L20.4122 17.8945V22.5008H20.455V17.6946L21.1442 16.5153V9.17268Z" fill="white"/>
<path d="M22.5698 14.1854L23.0068 13.4391V6.20538L22.5698 6.95164V14.1854Z" fill="white"/>
<path d="M17.7432 22.472V23.4848L18.9392 21.4348V20.4221V13.597L17.7432 15.6469V22.472Z" fill="white"/>
<path d="M23.0991 13.5325L23.196 13.3681V5.86565L23.0991 6.03222V13.5325Z" fill="white"/>
<path d="M17.1667 23.4647L17.214 23.387V16.7685L17.1667 16.8462V23.4647Z" fill="white"/>
<path d="M11.3806 22.9873L11.4302 23.065V15.869L11.3806 15.7913V22.9873Z" fill="white"/>
<path d="M8.72296 18.121L8.8153 18.2765V10.8139L8.72296 10.6562V18.121Z" fill="white"/>
<path d="M22.2388 7.3203V14.7562L22.4776 14.3475V6.91164L22.2388 7.3203Z" fill="white"/>
<path d="M27.3041 6.06106V6.46528L28.3401 4.68627V4.28205V3.0916H27.3041V6.06106Z" fill="white"/>
<path d="M26.8784 6.79174L27.1486 6.32977V3.19151H26.8784V6.79174Z" fill="white"/>
<path d="M28.5856 3.0916V3.86006L29 3.14934V3.0916H28.5856Z" fill="white"/>
<path d="M5.2027 12.0866L5.22972 12.1333V4.67073L5.2027 4.62187V12.0866Z" fill="white"/>
<path d="M21.5676 15.9268L21.5946 15.8801V8.41537L21.5676 8.46424V15.9268Z" fill="white"/>
<path d="M9.81079 13.0661V19.9911L9.89187 20.1311V24.5775H9.92566V20.191L10.295 20.8218V13.899L9.81079 13.0661Z" fill="white"/>
<path d="M10.6802 21.4858L10.9438 21.9411V14.4764L10.6802 14.0211V21.4858Z" fill="white"/>
<path d="M5.57208 12.191L6.40091 13.6169V6.94722L5.57208 5.52135V12.191Z" fill="white"/>
<path d="M6.52026 12.8795H6.60134V15.1249L6.87837 15.6024V7.20708L6.52026 6.58965V12.8795Z" fill="white"/>
<path d="M26.3987 3.0916H26.1194V3.26706H24.8109V10.8451L26.1194 8.59743V8.29537L26.4325 7.76678V7.55579L26.7118 7.07605V3.0916H26.4325H26.3987Z" fill="white"/>
<path d="M13.2793 18.2033L13.1351 17.9568V25.7102L13.2793 25.959L13.4032 26.1722V18.4187L13.2793 18.2033Z" fill="white"/>
<path d="M4.54053 10.7784L5.03377 11.6268V4.30863L4.54053 3.45799V10.7784Z" fill="white"/>
<path d="M12.9641 25.9966L13.0159 26.081V18.2099L12.9641 18.1255V25.9966Z" fill="white"/>
<path d="M10.6802 11.4447L10.9438 11.8978V6.62741L10.6802 7.08049V11.4447Z" fill="white"/>
<path d="M16.7725 11.9156L16.9234 12.171V4.62185L16.7725 4.36421V11.9156Z" fill="white"/>
<path d="M15.7816 10.221L15.6893 10.0611V18.5364L15.7816 18.3742V11.1072L16.1825 11.7912V3.34926L15.7816 2.66075V10.221Z" fill="white"/>
<path d="M16.3851 3.69572V11.2493L16.4347 11.3381V3.78234L16.3851 3.69572Z" fill="white"/>
<path d="M12.8896 10.8628C12.8987 10.8473 12.9077 10.8317 12.9324 10.8006V3.23595L12.8896 3.29813V10.8628Z" fill="white"/>
<path d="M13.5607 18.9783V26.4409L14.054 27.2915L14.4661 28V20.5352L14.054 19.8268L13.5607 18.9783Z" fill="white"/>
<path d="M13.4032 27.5181H13.5248V26.3831L13.4032 26.1721V27.5181Z" fill="white"/>
<path d="M16.4347 17.2548L16.7725 16.6752V11.9156L16.4347 11.3381V17.2548Z" fill="white"/>
<path d="M10.295 20.8218V25.1505H10.2995H10.3941V20.9928L10.2995 20.8329L10.295 20.8218Z" fill="white"/>
<path d="M14.6487 20.3198L14.7973 20.0688V8.53298L14.6487 8.28201V20.3198Z" fill="white"/>
<path d="M13.2793 10.4942C13.3221 10.4209 13.3626 10.3498 13.4031 10.2809V2.40309L13.2793 2.61631L13.1351 2.86284L13.0405 3.02275V10.8984C13.0721 10.8451 13.1036 10.7895 13.1351 10.7385C13.1847 10.6541 13.232 10.5719 13.2793 10.4919V10.4942Z" fill="white"/>
<path d="M22.4775 20.9928H22.5698V14.1854L22.4775 14.3476V20.9928Z" fill="white"/>
<path d="M5.3266 12.2732L5.5248 12.6174V5.15489L5.3266 4.81064V12.2732Z" fill="white"/>
<path d="M12.5473 24.6974L12.8356 25.1949V18.0411L12.5473 17.5436V24.6974Z" fill="white"/>
<path d="M12.518 11.1293L12.8356 10.5741V3.37808L12.518 3.92222V11.1293Z" fill="white"/>
<path d="M11.0563 12.8973V13.688L11.1486 13.8479V13.0572V6.27429L11.0563 6.4342V12.8973Z" fill="white"/>
<path d="M18.7455 4.65071H18.6577V6.02994H18.7455V4.65071Z" fill="white"/>
<path d="M15.732 9.49033V7.81793H15.6892V2.50088L14.9617 1.24825V8.81515L15.6892 10.0611V9.49033H15.732Z" fill="white"/>
<path d="M20.9234 17.7524H20.8446V20.3776H20.9527V18.9784H20.9234V17.7524Z" fill="white"/>
<path d="M22.8739 14.1876H22.7004V16.6574H22.8739V14.1876Z" fill="white"/>
<path d="M21.2095 21.206V19.2027H21.0383V21.8523H21.3964V24.2821H21.4392V21.206H21.2095Z" fill="white"/>
<path d="M21.3739 8.77502H21.2996H21.2095V9.05931V12.5352H21.2996V16.2109L21.4482 15.9555V12.5352H21.4752V8.77502H21.4482H21.3739Z" fill="white"/>
<path d="M15.3604 18.603H15.1306V19.4959L14.9617 19.7868V27.2516L15.6892 26.0012V18.5364L15.3604 19.1005V18.603Z" fill="white"/>
<path d="M21.4483 8.43477H21.4573V8.10002H21.4483H21.2996H21.2275V8.43477H21.2996H21.4483Z" fill="white"/>
<path d="M9.41442 19.6935H9.18469V20.1923H9.41442V19.6935Z" fill="white"/>
<path d="M14.5068 6.98057H14.7185V4.19989H14.4662V0.579678L14.3649 0.752915V0H14.2906V0.877291L14.0541 1.28817V8.85953C14.0676 8.83509 14.0834 8.81066 14.0924 8.79512L14.1149 8.75514V14.5941H14.3671V8.32205L14.4685 8.14881V7.84453H14.5113V6.97835L14.5068 6.98057Z" fill="white"/>
<path d="M11.973 12.4175C12.0766 12.2421 12.1779 12.0689 12.277 11.9001C12.3288 11.809 12.3829 11.7202 12.4324 11.6335V4.07107L12.277 4.33981L11.973 4.85952V2.15436H11.8514V5.60133L11.545 6.12993V13.1527C11.6892 12.9062 11.8311 12.6641 11.9707 12.4264C11.9707 12.4242 11.973 12.422 11.9752 12.4198L11.973 12.4175Z" fill="white"/>
<path d="M12.4325 15.729H12.2771H11.973L11.9685 16.2398L11.5428 15.5091V22.9716L12.2771 24.2332V20.7351H12.4325V24.5019L12.4933 24.6041V17.1416L12.4325 17.0394V15.729Z" fill="white"/>
<path d="M12.7928 16.6596H12.5721V16.9522H12.7928V16.6596Z" fill="white"/>
<path d="M7.84688 7.70236H7.62616V8.05263H7.84688V7.70236Z" fill="white"/>
<path d="M0.653154 3.17378V3.0916H0.515766H0.396397H0.313063H0.243244H0V3.11159L0.243244 3.52913L0.396397 3.79121V3.78899L0.513514 3.9911L0.515766 3.99554V3.99776L1.3446 5.42364V3.17378H1.14189H0.653154Z" fill="white"/>
<path d="M4.34017 10.5786V3.11603L4.32665 3.0916H3.34692V9.34146L4.34017 11.0494V16.0822H4.54062V11.347L4.34017 11.005V10.5786Z" fill="white"/>
<path d="M2.68921 3.23373V7.92002L3.21849 8.83062L3.25678 8.89725V3.23373H3.21849H2.68921Z" fill="white"/>
<path d="M7.99105 8.06664H7.8469V8.66408H7.62618V8.15992H7.36267H7.25006V0.655197H7.15997V5.13271L7.15546 6.35203V8.95281L6.9978 8.68185V15.1494L8.38744 17.5414V20.8218H8.54961V18.4542H8.43474V17.6236L8.57663 17.8679V10.4031L7.99105 9.39479V8.06664Z" fill="white"/>
<path d="M19.4617 8.99283L19.0946 8.35985V10.9184L19.4617 10.2854V8.99283Z" fill="white"/>
<path d="M18.7455 8.27758H18.6577V7.11378L18.7455 7.26481V6.29646H18.6577V7.11378L17.7433 5.54354V6.03438L17.6261 5.83227V4.84393H17.5451V5.69013L17.196 5.09268L17.1667 5.0416V12.5885L17.196 12.6396L17.5451 13.2348V15.3514V18.2942H17.6261V15.2093V13.377L17.6442 13.3459L17.7433 13.1749V12.6463V12.4553L18.241 11.6024V10.1965H18.3401V11.4292L18.9392 10.4031V8.0888V7.59796L18.7455 7.26481V8.27758Z" fill="white"/>
<path d="M18.2411 12.9572H18.3402V11.4292L18.2411 11.6024V12.9572Z" fill="white"/>
</svg>
