<svg xmlns="http://www.w3.org/2000/svg">
    <symbol id="security-status" viewBox="0 0 64 64">
        <path d="M47.68 38.0651C42.395 38.0651 38.11 42.3501 38.11 47.6351C38.11 52.9201 42.395 57.2051 47.68 57.2051C52.965 57.2051 57.25 52.9201 57.25 47.6351C57.25 42.3501 52.965 38.0651 47.68 38.0651ZM52.315 54.2701L47.68 50.9001L43.045 54.2701L44.815 48.8201L40.18 45.4551H45.91L47.68 40.0051L49.45 45.4551H55.18L50.545 48.8201L52.315 54.2701Z" fill="currentColor"/>
        <path opacity="0.75" d="M36.155 46.74C35.01 47.115 33.815 47.37 32.575 47.49V39.825H29.425V47.49C21.565 46.745 15.3 40.475 14.555 32.62H22.22V29.47H14.555C15.3 21.615 21.565 15.345 29.425 14.6V22.265H32.575V14.595C40.435 15.34 46.7 21.61 47.45 29.47H39.78V32.62H47.45C47.33 33.86 47.075 35.055 46.7 36.2C47.025 36.175 47.35 36.155 47.68 36.155C49 36.155 50.27 36.38 51.455 36.79C51.97 34.96 52.25 33.035 52.25 31.045C52.25 19.31 42.735 9.79504 31 9.79504C19.26 9.79504 9.75 19.31 9.75 31.045C9.75 42.78 19.265 52.295 31 52.295C32.99 52.295 34.915 52.015 36.745 51.5C36.335 50.315 36.11 49.045 36.11 47.725C36.11 47.395 36.13 47.065 36.155 46.74Z" fill="currentColor"/>
    </symbol>
</svg>
