<svg xmlns="http://www.w3.org/2000/svg">
    <symbol id="user" viewBox="0 0 29 29">
        <path d="M9.53898 21.191L4.51415 22.8241L5.16309 25.5091H14.4964V5.42698C8.76947 5.42698 9.53188 11.9023 9.53188 11.9023C9.54252 12.2268 9.30493 12.0628 9.25174 12.0557C8.71983 12.0164 8.93614 13.4213 9.0638 14.0239C9.18791 14.6265 9.23756 14.8191 9.44323 15.3575C9.6489 15.8959 10.0744 15.8139 10.0744 15.8139C10.0744 15.8139 10.2163 16.741 10.3439 17.554C10.4716 18.367 10.9751 18.8377 10.9751 18.8377C10.9751 18.8377 10.9751 18.9197 10.8652 19.9751C10.7517 21.0306 9.53898 21.191 9.53898 21.191Z" fill="currentColor"/>
        <path d="M9.53898 21.191L4.51415 22.8241L5.16309 25.5091H14.4964V5.42698C8.76947 5.42698 9.53188 11.9023 9.53188 11.9023C9.54252 12.2268 9.30493 12.0628 9.25174 12.0557C8.71983 12.0164 8.93614 13.4213 9.0638 14.0239C9.18791 14.6265 9.23756 14.8191 9.44323 15.3575C9.6489 15.8959 10.0744 15.8139 10.0744 15.8139C10.0744 15.8139 10.2163 16.741 10.3439 17.554C10.4716 18.367 10.9751 18.8377 10.9751 18.8377C10.9751 18.8377 10.9751 18.9197 10.8652 19.9751C10.7517 21.0306 9.53898 21.191 9.53898 21.191Z" fill="currentColor" transform="translate(29) scale(-1, 1)" />
        <path d="M 20.294 1.658 L 8.706 1.658 L 1.723 19.059 L 3.731 27.346 L 25.262 27.346 L 27.27 19.059 L 20.294 1.658 Z M 21.404 0 L 29 18.934 L 26.56 29 L 2.44 29 L 0 18.934 L 7.596 0 L 21.404 0 Z" fill="var(--borderColor, currentColor)"/>
    </symbol>
</svg>