<svg width="220" height="88" viewBox="0 0 220 88" fill="none" xmlns="http://www.w3.org/2000/svg">
<path d="M65.0713 0H0V4.62915H65.0713V0Z" fill="#FAFAE6"/>
<path d="M65.0713 23.8452H0V28.4744H65.0713V23.8452Z" fill="#FAFAE6"/>
<path d="M65.0713 47.7564H0V52.3856H65.0713V47.7564Z" fill="#FAFAE6"/>
<path d="M219.806 0H154.735V4.62915H219.806V0Z" fill="#FAFAE6"/>
<path d="M219.806 23.8452H154.735V28.4744H219.806V23.8452Z" fill="#FAFAE6"/>
<path d="M219.806 47.7564H154.735V52.3856H219.806V47.7564Z" fill="#FAFAE6"/>
<path d="M138.963 0L111.621 47.7564H108.191L80.8499 0H75.529L109.905 60.0502L144.284 0H138.963Z" fill="#FAFAE6"/>
<path d="M59.2965 78.1478V88H71.5663V78.1478H59.2965ZM70.1324 86.5614H60.7304V79.5831H70.1324V86.5614Z" fill="#FAFAE6"/>
<path d="M99.4831 88H101.216V78.1478H99.7824V86.116L90.673 78.1478H88.9465V88H90.377V80.0318L90.4855 80.1242L99.4831 88Z" fill="#FAFAE6"/>
<path d="M42.1235 88L38.2594 84.2485H41.9295V78.1478H29.6598V88H31.0936V79.5864H40.499V82.8132H34.6453L40.055 88H42.1235Z" fill="#FAFAE6"/>
<path d="M220 88L216.136 84.2485H219.809V78.1478H207.54V88H208.97V79.5864H218.375V82.8132H212.522L217.935 88H220Z" fill="#FAFAE6"/>
<path d="M130.863 78.1478H118.593V79.5864H124.088V88H125.522V79.5864H130.863V78.1478Z" fill="#FAFAE6"/>
<path d="M159.924 79.5864V78.1478H148.828V79.5864H153.663V86.5614H148.828V88H159.924V86.5614H155.093V79.5864H159.924Z" fill="#FAFAE6"/>
<path d="M190.159 79.5864V78.1478H177.89V88H190.159V86.5614H179.323V83.7965H187.93V82.3612H179.323V79.5864H190.159Z" fill="#FAFAE6"/>
<path d="M10.0401 82.3612H1.43382V79.5864H12.2697V78.1478H0V88H1.43382V83.7965H10.0401V82.3612Z" fill="#FAFAE6"/>
</svg>
