<svg width="72" height="72" viewBox="0 0 72 72" fill="none" xmlns="http://www.w3.org/2000/svg">
  <rect width="72" height="72" fill="#0B0B0B"/>
  <g transform="translate(7, 8.5)">
    <path fill-rule="evenodd" clip-rule="evenodd" d="M57 36.6953L34.8132 54V47.0794L51.5442 34.0299V20.5037L34.8132 7.4542V0.533569L57 17.8383V36.6953ZM0.999989 36.6953L23.1867 54V47.0794L6.45575 34.0299V20.5037L23.1867 7.4542V0.533569L0.999989 17.8383V36.6953Z" fill="#FAFAE5"/>
    <path d="M34.8132 54H34.7501V54.1294L34.8521 54.0498L34.8132 54ZM57 36.6953L57.0389 36.7451L57.0632 36.7261V36.6953H57ZM34.8132 47.0794L34.7744 47.0295L34.7501 47.0485V47.0794H34.8132ZM51.5442 34.0299L51.5831 34.0797L51.6074 34.0607V34.0299H51.5442ZM51.5442 20.5037H51.6074V20.4728L51.5831 20.4538L51.5442 20.5037ZM34.8132 7.4542H34.7501V7.48506L34.7744 7.50404L34.8132 7.4542ZM34.8132 0.533569L34.8521 0.483738L34.7501 0.404137V0.533569H34.8132ZM57 17.8383H57.0632V17.8074L57.0389 17.7885L57 17.8383ZM23.1867 54L23.1479 54.0498L23.2499 54.1294V54H23.1867ZM0.999989 36.6953H0.936794V36.7261L0.961124 36.7451L0.999989 36.6953ZM23.1867 47.0794H23.2499V47.0485L23.2256 47.0295L23.1867 47.0794ZM6.45575 34.0299H6.39255V34.0607L6.41688 34.0797L6.45575 34.0299ZM6.45575 20.5037L6.41688 20.4538L6.39255 20.4728V20.5037H6.45575ZM23.1867 7.4542L23.2256 7.50404L23.2499 7.48506V7.4542H23.1867ZM23.1867 0.533569H23.2499V0.404137L23.1479 0.483738L23.1867 0.533569ZM0.999989 17.8383L0.961124 17.7885L0.936794 17.8074V17.8383H0.999989ZM34.8521 54.0498L57.0389 36.7451L56.9611 36.6454L34.7744 53.9502L34.8521 54.0498ZM34.7501 47.0794V54H34.8764V47.0794H34.7501ZM51.5054 33.9801L34.7744 47.0295L34.8521 47.1292L51.5831 34.0797L51.5054 33.9801ZM51.481 20.5037V34.0299H51.6074V20.5037H51.481ZM34.7744 7.50404L51.5054 20.5535L51.5831 20.4538L34.8521 7.40437L34.7744 7.50404ZM34.7501 0.533569V7.4542H34.8764V0.533569H34.7501ZM57.0389 17.7885L34.8521 0.483738L34.7744 0.583401L56.9611 17.8881L57.0389 17.7885ZM57.0632 36.6953V17.8383H56.9368V36.6953H57.0632ZM23.2256 53.9502L1.03885 36.6454L0.961124 36.7451L23.1479 54.0498L23.2256 53.9502ZM23.1235 47.0794V54H23.2499V47.0794H23.1235ZM6.41688 34.0797L23.1479 47.1292L23.2256 47.0295L6.49461 33.9801L6.41688 34.0797ZM6.39255 20.5037V34.0299H6.51894V20.5037H6.39255ZM23.1479 7.40437L6.41688 20.4538L6.49461 20.5535L23.2256 7.50404L23.1479 7.40437ZM23.1235 0.533569V7.4542H23.2499V0.533569H23.1235ZM1.03885 17.8881L23.2256 0.583401L23.1479 0.483738L0.961124 17.7885L1.03885 17.8881ZM1.06318 36.6953V17.8383H0.936794V36.6953H1.06318Z" fill="#FAFAE5"/>
  </g>
</svg>
